<?xml version="1.0" encoding="UTF-8" standalone="no"?>
<svg
   xmlns:dc="http://purl.org/dc/elements/1.1/"
   xmlns:cc="http://creativecommons.org/ns#"
   xmlns:rdf="http://www.w3.org/1999/02/22-rdf-syntax-ns#"
   xmlns:svg="http://www.w3.org/2000/svg"
   xmlns="http://www.w3.org/2000/svg"
   xmlns:sodipodi="http://sodipodi.sourceforge.net/DTD/sodipodi-0.dtd"
   xmlns:inkscape="http://www.inkscape.org/namespaces/inkscape"
   inkscape:version="1.0 (4035a4fb49, 2020-05-01)"
   sodipodi:docname="Spotify_Icon_RGB_White.svg"
   version="1.1"
   id="svg2"
   xml:space="preserve"
   width="24"
   height="24"
   viewBox="0 0 24 24"><sodipodi:namedview
     inkscape:current-layer="svg2"
     inkscape:window-maximized="1"
     inkscape:window-y="-8"
     inkscape:window-x="1912"
     inkscape:cy="2.9024904"
     inkscape:cx="8.9239863"
     inkscape:zoom="16"
     fit-margin-bottom="2"
     fit-margin-right="2"
     fit-margin-left="2"
     fit-margin-top="2"
     showgrid="false"
     id="namedview12"
     inkscape:window-height="1027"
     inkscape:window-width="1920"
     inkscape:pageshadow="2"
     inkscape:pageopacity="0"
     guidetolerance="10"
     gridtolerance="10"
     objecttolerance="10"
     borderopacity="1"
     bordercolor="#666666"
     pagecolor="#ffffff" /><metadata
     id="metadata8"><rdf:RDF><cc:Work
         rdf:about=""><dc:format>image/svg+xml</dc:format><dc:type
           rdf:resource="http://purl.org/dc/dcmitype/StillImage" /><dc:title></dc:title></cc:Work></rdf:RDF></metadata><defs
     id="defs6"><clipPath
       clipPathUnits="userSpaceOnUse"
       id="clipPath18"><path
         d="M 0,170.05 H 170.05 V 0 H 0 Z"
         id="path16" /></clipPath></defs><g
     style="stroke-width:11.1658"
     id="g10"
     transform="matrix(0.11941225,0,0,-0.11941225,1.8469254,22.153014)"><g
       style="stroke-width:11.1658"
       id="g12"><g
         style="stroke-width:11.1658"
         id="g14"
         clip-path="url(#clipPath18)"><g
           style="stroke-width:11.1658"
           id="g20"
           transform="translate(134.5619,94.5284)"><path
             d="m 0,0 c -26.994,16.031 -71.52,17.505 -97.289,9.684 -4.139,-1.256 -8.515,1.08 -9.768,5.218 -1.254,4.141 1.079,8.514 5.22,9.772 29.582,8.979 78.756,7.245 109.832,-11.202 3.723,-2.21 4.943,-7.017 2.737,-10.733 C 8.524,-0.983 3.713,-2.21 0,0 m -0.884,-23.744 c -1.894,-3.073 -5.912,-4.037 -8.981,-2.15 -22.504,13.833 -56.822,17.841 -83.447,9.759 -3.452,-1.043 -7.099,0.903 -8.148,4.35 -1.04,3.452 0.907,7.092 4.354,8.142 30.415,9.23 68.226,4.76 94.074,-11.125 3.069,-1.89 4.035,-5.91 2.148,-8.976 m -10.247,-22.803 c -1.505,-2.468 -4.718,-3.241 -7.177,-1.737 -19.665,12.019 -44.417,14.733 -73.567,8.075 -2.809,-0.644 -5.609,1.116 -6.249,3.924 -0.644,2.809 1.11,5.609 3.925,6.25 31.9,7.292 59.263,4.154 81.336,-9.334 2.461,-1.503 3.236,-4.718 1.732,-7.178 M -49.537,74.24 c -46.249,0 -83.743,-37.493 -83.743,-83.742 0,-46.254 37.494,-83.745 83.743,-83.745 46.251,0 83.744,37.491 83.744,83.745 0,46.249 -37.493,83.742 -83.744,83.742"
             style="fill:#ffffff;fill-opacity:1;fill-rule:nonzero;stroke:none;stroke-width:11.1658"
             id="path22" /></g></g></g></g></svg>
