<svg width="16" height="16" version="1.1" viewBox="0 0 4.2333 4.2333" xmlns="http://www.w3.org/2000/svg"><path transform="scale(.26458)" d="m8 0a8 8 0 0 0-8 8 8 8 0 0 0 3.0938 6.3184c0.23158-0.94839 0.60926-1.903 1.1367-2.7441 0.53714-0.85656 1.226-1.6098 2.0391-2.0625-0.91684-0.58976-1.5312-1.6226-1.5312-2.8008 4e-7 -1.8248 1.4613-3.3301 3.2637-3.3301 1.8024 1e-7 3.2637 1.5053 3.2637 3.3301 0 1.2087-0.6488 2.2609-1.6055 2.8418 0.79437 0.45268 1.4802 1.1784 2.0254 2.0078 0.55677 0.84702 0.95885 1.8112 1.2051 2.7715a8 8 0 0 0 3.1094-6.332 8 8 0 0 0-8-8zm0.0019531 4.3848c-1.2486 0-2.2656 1.0309-2.2656 2.3262 0 1.2952 1.017 2.3242 2.2656 2.3242 1.2486 0 2.2598-1.029 2.2598-2.3242-1e-6 -1.2952-1.0112-2.3262-2.2598-2.3262zm-0.082031 5.6836c-1.0564 0-2.076 0.8159-2.8418 2.0371-0.53119 0.84707-0.90427 1.8632-1.0918 2.8164a8 8 0 0 0 4.0137 1.0781 8 8 0 0 0 4.0059-1.0762c-0.20088-0.94889-0.59755-1.9636-1.1543-2.8105-0.80396-1.2231-1.8753-2.0449-2.9316-2.0449z" fill="#808080"/></svg>
