<svg width="16" height="16" version="1.1" viewBox="0 0 4.2333 4.2333" xmlns="http://www.w3.org/2000/svg"><path d="m2.1172 0c-0.85535-3.2986e-8 -1.6297 0.5164-1.957 1.3066-0.32733 0.79024-0.14584 1.7018 0.45898 2.3066 0.60483 0.60483 1.5164 0.78631 2.3066 0.45898 0.79024-0.32733 1.3066-1.0997 1.3066-1.9551a0.26458 0.26458 0 0 0-0.26367-0.26562 0.26458 0.26458 0 0 0-0.26367 0.26562c0 0.64284-0.38656 1.2208-0.98047 1.4668-0.59391 0.24601-1.2759 0.10886-1.7305-0.3457-0.45456-0.45456-0.58976-1.1346-0.34375-1.7285 0.24601-0.59391 0.82395-0.98047 1.4668-0.98047a0.26458 0.26458 0 0 0 0.26367-0.26562 0.26458 0.26458 0 0 0-0.26367-0.26367z" color="#000000" color-rendering="auto" dominant-baseline="auto" fill="#666" image-rendering="auto" shape-rendering="auto" solid-color="#000000" stop-color="#000000" style="font-feature-settings:normal;font-variant-alternates:normal;font-variant-caps:normal;font-variant-east-asian:normal;font-variant-ligatures:normal;font-variant-numeric:normal;font-variant-position:normal;font-variation-settings:normal;inline-size:0;isolation:auto;mix-blend-mode:normal;shape-margin:0;shape-padding:0;text-decoration-color:#000000;text-decoration-line:none;text-decoration-style:solid;text-indent:0;text-orientation:mixed;text-transform:none;white-space:normal"/></svg>
